<!DOCTYPE svg PUBLIC "-//W3C//DTD SVG 1.1//EN" "http://www.w3.org/Graphics/SVG/1.1/DTD/svg11.dtd">
<!-- Uploaded to: SVG Repo, www.svgrepo.com, Transformed by: SVG Repo Mixer Tools -->
<svg fill="#FFF" version="1.1" id="Capa_1" xmlns="http://www.w3.org/2000/svg" xmlns:xlink="http://www.w3.org/1999/xlink" width="800px" height="800px" viewBox="0 0 108.364 108.364" xml:space="preserve" stroke="#FFF">
<g id="SVGRepo_bgCarrier" stroke-width="0"/>
<g id="SVGRepo_tracerCarrier" stroke-linecap="round" stroke-linejoin="round"/>
<g id="SVGRepo_iconCarrier"> <g> <g> <path d="M54.182,0C24.258,0,0,24.258,0,54.182c0,29.924,24.258,54.183,54.182,54.183c29.923,0,54.182-24.259,54.182-54.183 C108.364,24.258,84.105,0,54.182,0z M62.372,44.193l7.694-9.755c0.158-0.197,0.393-0.308,0.646-0.308s0.486,0.111,0.642,0.304 l7.697,9.757c0.188,0.237,0.229,0.58,0.1,0.859c-0.146,0.293-0.428,0.467-0.741,0.467h-3.554c-0.182,0-0.352-0.083-0.463-0.225 l-3.681-4.664l-3.681,4.664c-0.112,0.141-0.281,0.225-0.462,0.225h-3.552c-0.313,0-0.604-0.18-0.738-0.459 c-0.055-0.113-0.082-0.237-0.082-0.359C62.198,44.516,62.26,44.336,62.372,44.193z M30.253,44.193l7.695-9.755 c0.158-0.197,0.392-0.308,0.645-0.308s0.486,0.111,0.641,0.304l7.697,9.757c0.189,0.237,0.229,0.58,0.1,0.859 c-0.146,0.293-0.428,0.467-0.741,0.467h-3.554c-0.181,0-0.351-0.083-0.463-0.225l-3.68-4.664l-3.681,4.664 c-0.112,0.141-0.281,0.225-0.462,0.225h-3.552c-0.313,0-0.604-0.18-0.738-0.459c-0.055-0.113-0.082-0.237-0.082-0.359 C30.078,44.516,30.14,44.336,30.253,44.193z M80.318,63.574C76.033,73.479,66,79.878,54.755,79.878 c-11.486,0-21.58-6.431-25.714-16.382c-0.185-0.443-0.135-0.949,0.131-1.348c0.267-0.397,0.714-0.637,1.192-0.637 c0.001,0,0.001,0,0.002,0l48.638,0.061c0.482,0,0.932,0.244,1.196,0.646C80.465,62.622,80.51,63.131,80.318,63.574z"/> </g> </g> </g>
</svg>